<svg viewBox="0 0 720 380" xmlns="http://www.w3.org/2000/svg" font-family="-apple-system, BlinkMacSystemFont, 'Segoe UI', sans-serif" role="img" aria-label="Nine summer wardrobe staples checklist">
  <rect x="0" y="0" width="720" height="380" fill="#ffffff"/>
  <text x="36" y="42" font-size="24" font-weight="700" fill="#1a1a1a">9 Summer Wardrobe Staples</text>
  <text x="36" y="65" font-size="14" fill="#6b7280">Mix, match, and beat the heat — check off what you already own</text>
  <g font-size="13.5" fill="#1a1a1a">
    <rect x="36" y="92" width="210" height="42" rx="9" fill="#f2f8f4" stroke="#d7e6dc"/>
    <circle cx="60" cy="113" r="11" fill="#1f6f43"/><text x="60" y="117" font-size="11" font-weight="700" fill="#fff" text-anchor="middle">1</text>
    <text x="80" y="117">Linen shirt</text>
    <rect x="255" y="92" width="210" height="42" rx="9" fill="#f2f8f4" stroke="#d7e6dc"/>
    <circle cx="279" cy="113" r="11" fill="#1f6f43"/><text x="279" y="117" font-size="11" font-weight="700" fill="#fff" text-anchor="middle">2</text>
    <text x="299" y="117">Denim shorts</text>
    <rect x="474" y="92" width="210" height="42" rx="9" fill="#f2f8f4" stroke="#d7e6dc"/>
    <circle cx="498" cy="113" r="11" fill="#1f6f43"/><text x="498" y="117" font-size="11" font-weight="700" fill="#fff" text-anchor="middle">3</text>
    <text x="518" y="117">White tee</text>
    <rect x="36" y="144" width="210" height="42" rx="9" fill="#f2f8f4" stroke="#d7e6dc"/>
    <circle cx="60" cy="165" r="11" fill="#1f6f43"/><text x="60" y="169" font-size="11" font-weight="700" fill="#fff" text-anchor="middle">4</text>
    <text x="80" y="169">Flowy midi skirt</text>
    <rect x="255" y="144" width="210" height="42" rx="9" fill="#f2f8f4" stroke="#d7e6dc"/>
    <circle cx="279" cy="165" r="11" fill="#1f6f43"/><text x="279" y="169" font-size="11" font-weight="700" fill="#fff" text-anchor="middle">5</text>
    <text x="299" y="169">Comfy sandals</text>
    <rect x="474" y="144" width="210" height="42" rx="9" fill="#f2f8f4" stroke="#d7e6dc"/>
    <circle cx="498" cy="165" r="11" fill="#1f6f43"/><text x="498" y="169" font-size="11" font-weight="700" fill="#fff" text-anchor="middle">6</text>
    <text x="518" y="169">Throw-on dress</text>
    <rect x="36" y="196" width="210" height="42" rx="9" fill="#f2f8f4" stroke="#d7e6dc"/>
    <circle cx="60" cy="217" r="11" fill="#1f6f43"/><text x="60" y="221" font-size="11" font-weight="700" fill="#fff" text-anchor="middle">7</text>
    <text x="80" y="221">Lightweight activewear</text>
    <rect x="255" y="196" width="210" height="42" rx="9" fill="#f2f8f4" stroke="#d7e6dc"/>
    <circle cx="279" cy="217" r="11" fill="#1f6f43"/><text x="279" y="221" font-size="11" font-weight="700" fill="#fff" text-anchor="middle">8</text>
    <text x="299" y="221">Straw bag / tote</text>
    <rect x="474" y="196" width="210" height="42" rx="9" fill="#f2f8f4" stroke="#d7e6dc"/>
    <circle cx="498" cy="217" r="11" fill="#1f6f43"/><text x="498" y="221" font-size="11" font-weight="700" fill="#fff" text-anchor="middle">9</text>
    <text x="518" y="221">Sunglasses</text>
  </g>
  <rect x="36" y="256" width="648" height="42" rx="10" fill="#e3efe7"/>
  <text x="360" y="282" font-size="13.5" font-weight="700" fill="#1f6f43" text-anchor="middle">The secret: none of these fight the heat — they lean into it</text>
  <text x="360" y="330" font-size="13" fill="#6b7280" text-anchor="middle">Light fabrics · easy shapes · colors that don't show a 2pm meltdown</text>
</svg>